/* XPM */
static char * C:\Users\root\Downloads\ferrite_core_1_2_0main\ferrite_core_main\share\pixmaps\bitcoin32_xpm[] = {
"32 32 38 1",
" 	c None",
".	c #000000",
"+	c #C2A300",
"@	c #C5A600",
"#	c #382E00",
"$	c #6F5D00",
"%	c #ECC700",
"&	c #B19500",
"*	c #F1CB00",
"=	c #AA8E00",
"-	c #DDBA00",
";	c #8A7300",
">	c #504200",
",	c #CBAB00",
"'	c #E7C300",
")	c #867000",
"!	c #917A00",
"~	c #D7B500",
"{	c #7B6700",
"]	c #A28800",
"^	c #261E00",
"/	c #E8C300",
"(	c #EEC800",
"_	c #CAAA00",
":	c #E0BD00",
"<	c #998000",
"[	c #E2BE00",
"}	c #362C00",
"|	c #392E00",
"1	c #705D00",
"2	c #8F7700",
"3	c #F6CF00",
"4	c #D3B200",
"5	c #615100",
"6	c #9F8500",
"7	c #BD9F00",
"8	c #BA9C00",
"9	c #D0AF00",
"            ........            ",
"         ..............         ",
"       ..................       ",
"      ....................      ",
"     ......................     ",
"    ........................    ",
"   ..........................   ",
"  ............................  ",
"  ..............+@#...........  ",
" ..............$%&*=........... ",
" ..............-;.>,')......... ",
" .............!~....{%]........ ",
".............^/$....>(#.........",
".............&@....._=..........",
"............>*#....$%...........",
".....>======~=.....:,=====>.....",
".....>=====@%.....<-======>.....",
"...........[)....}'$............",
"..........<~.....&@.............",
".........|'1....>*#.............",
" ........23)....,=............. ",
" .........$[45.$%.............. ",
" ...........6%7[).............. ",
"  ...........#89..............  ",
"  ............................  ",
"   ..........................   ",
"    ........................    ",
"     ......................     ",
"      ....................      ",
"       ..................       ",
"         ..............         ",
"            ........            "};
