/* XPM */
static char * C:\Users\root\Downloads\ferrite_core_1_2_0main\ferrite_core_main\share\pixmaps\bitcoin64_xpm[] = {
"64 64 73 1",
" 	c None",
".	c #000000",
"+	c #1A1400",
"@	c #E2BE00",
"#	c #AA8E00",
"$	c #B19500",
"%	c #FFD700",
"&	c #EAC500",
"*	c #867000",
"=	c #504200",
"-	c #F9D200",
";	c #F6CF00",
">	c #CBAB00",
",	c #D2B000",
"'	c #574800",
")	c #CAAA00",
"!	c #A78C00",
"~	c #766200",
"{	c #FAD300",
"]	c #B89A00",
"^	c #382E00",
"/	c #6F5D00",
"(	c #EBC600",
"_	c #A18700",
":	c #F4CE00",
"<	c #F0CB00",
"[	c #9A8100",
"}	c #BD9F00",
"|	c #D6B400",
"1	c #635200",
"2	c #C7A700",
"3	c #372D00",
"4	c #ECC700",
"5	c #695800",
"6	c #AA8F00",
"7	c #C1A200",
"8	c #9B8200",
"9	c #D2B100",
"0	c #A68B00",
"a	c #705E00",
"b	c #B29500",
"c	c #CEAD00",
"d	c #A38900",
"e	c #736000",
"f	c #E7C300",
"g	c #F1CB00",
"h	c #CDAD00",
"i	c #EEC900",
"j	c #625200",
"k	c #E7C200",
"l	c #B69900",
"m	c #BFA100",
"n	c #D1B000",
"o	c #CEAE00",
"p	c #A28700",
"q	c #615000",
"r	c #836E00",
"s	c #A08700",
"t	c #D1AF00",
"u	c #E6C200",
"v	c #7D6800",
"w	c #BB9D00",
"x	c #514200",
"y	c #A28800",
"z	c #937B00",
"A	c #E3C000",
"B	c #C5A500",
"C	c #FBD300",
"D	c #DCB900",
"E	c #6F5C00",
"F	c #DBB800",
"G	c #907900",
"H	c #554700",
"                          ............                          ",
"                      ....................                      ",
"                    ........................                    ",
"                 ..............................                 ",
"                ................................                ",
"              ....................................              ",
"             ......................................             ",
"           ..........................................           ",
"          ............................................          ",
"         ..............................................         ",
"        ................................................        ",
"       ..................................................       ",
"       ..................................................       ",
"      ....................................................      ",
"     ......................................................     ",
"     ......................................................     ",
"    ............................+@#.........................    ",
"   .............................$%%&*........................   ",
"   ............................=-;>%%,'......................   ",
"   ............................)%!.~@%{]^....................   ",
"  ............................/%(...._:%<[....................  ",
"  ............................@%*.....^}{%@/..................  ",
" ............................[%|........1|%%2^................. ",
" ...........................34{5..........6%&.................. ",
" ...........................$%7...........@%*.................. ",
" ..........................={;^..........8%9................... ",
"...........................>%0..........34{1....................",
"..........................a%&...........b%7.....................",
"..........................@%*..........={;^.....................",
".........................[%9...........c%d......................",
"........................^4{1..........e%f.......................",
".........../ffffffffffff4%7...........@%gfffffffffff/...........",
".........../fffffffffff4%;^..........8%gffffffffffff/...........",
".......................h%d..........^i{j........................",
"......................e%k...........l%m.........................",
"......................@%*..........={;^.........................",
".....................8%n...........o%p..........................",
"....................^i{q..........~%k...........................",
" ...................l%}...........@%r.......................... ",
" ..................={:^..........s%n........................... ",
" ..................t%>..........^<{'........................... ",
" ..................l{%uv........l%w............................ ",
"  ..................=t%%t=.....x{:^...........................  ",
"  ....................vk%{b3...t%y............................  ",
"   .....................d;%4z.v%A............................   ",
"   ......................^BC%Df%v............................   ",
"   ........................EF%%n.............................   ",
"    .........................GfH............................    ",
"     ......................................................     ",
"     ......................................................     ",
"      ....................................................      ",
"       ..................................................       ",
"       ..................................................       ",
"        ................................................        ",
"         ..............................................         ",
"          ............................................          ",
"           ..........................................           ",
"             ......................................             ",
"              ....................................              ",
"                ................................                ",
"                 ..............................                 ",
"                    ........................                    ",
"                      ....................                      ",
"                          ............                          "};
