/* XPM */
static char * C:\Users\root\Downloads\ferrite_core_1_2_0main\ferrite_core_main\share\pixmaps\bitcoin16_xpm[] = {
"16 16 24 1",
" 	c None",
".	c #000000",
"+	c #382E00",
"@	c #CBAB00",
"#	c #A28800",
"$	c #B19500",
"%	c #4F4100",
"&	c #6F5D00",
"*	c #C5A600",
"=	c #504200",
"-	c #615100",
";	c #A88D00",
">	c #B89B00",
",	c #7C6700",
"'	c #BFA000",
")	c #867000",
"!	c #B89A00",
"~	c #8C7500",
"{	c #BA9C00",
"]	c #9A8100",
"^	c #BFA100",
"/	c #7B6600",
"(	c #998000",
"_	c #392F00",
"     ......     ",
"   ..........   ",
"  ............  ",
" .............. ",
" ......+@#..... ",
".......$%&*=....",
"......-;..>.....",
"...,,,'..)!,,...",
"...,,$~..{,,,...",
".....{..]&......",
"....=^/+>.......",
" .....(*_...... ",
" .............. ",
"  ............  ",
"   ..........   ",
"     ......     "};
